# xmcd CD database file
#
# Track frame offsets:
#	150
#	29248
#	68885
#	106206
#	148654
#	175243
#	257141
#
# Disc length: 4047 seconds
#
# Revision: 0
# Processed by: cddbd v1.5.2PL0 Copyright (c) Steve Scherf et al.
# Submitted via: CDex 1.90
#
DISCID=670fcd07
DTITLE=Medwyn Goodall - Spirit Horse
DYEAR=1900
DGENRE=New Age
TTITLE0=Earth Dance
TTITLE1=Homeland
TTITLE2=Dance on Clouds
TTITLE3=Soul Journey
TTITLE4=Spirit of the Mountain
TTITLE5=White Wolf Invocation
TTITLE6=Vision Quest
EXTD=
EXTT0=
EXTT1=
EXTT2=
EXTT3=
EXTT4=
EXTT5=
EXTT6=
PLAYORDER=
